<svg height="464" viewBox="0 0 363 464" width="363" xmlns="http://www.w3.org/2000/svg">
    <g data-name="Group 47217" id="Group_47217" transform="translate(-102 -14103)">
        <path d="M329,464H34A33.972,33.972,0,0,1,0,430V356.995c.172,0,.359.005.555.005a27.2,27.2,0,0,0,9.722-1.768,25.208,25.208,0,0,0,7.939-4.822,22.454,22.454,0,0,0,5.353-7.152,20.521,20.521,0,0,0,0-17.516,22.455,22.455,0,0,0-5.353-7.152,25.209,25.209,0,0,0-7.939-4.822A27.2,27.2,0,0,0,.555,312c-.186,0-.373,0-.555.005V34A33.972,33.972,0,0,1,34,0H329a33.972,33.972,0,0,1,34,34V312.006a27.11,27.11,0,0,0-9.527,1.9,25.134,25.134,0,0,0-7.76,4.847,20.942,20.942,0,0,0,0,31.49,25.133,25.133,0,0,0,7.76,4.847,27.111,27.111,0,0,0,9.527,1.9V430a33.972,33.972,0,0,1-34,34Z" data-name="Subtraction 13"
            fill="#fff"
            id="Subtraction_13" transform="translate(102 14103)" />
        <line data-name="Line 19699" fill="none" id="Line_19699" opacity="0.368"
            stroke="#32c8d9" stroke-dasharray="3" stroke-width="1" transform="translate(127.5 14435.5)" x2="313" />
    </g>
</svg>
