<svg xmlns:xlink="http://www.w3.org/1999/xlink" height="34.992" viewBox="0 0 34.992 34.992"
    width="34.992" xmlns="http://www.w3.org/2000/svg">
    <defs>
        <linearGradient gradientUnits="objectBoundingBox" id="linear-gradient" x1="0.5" x2="0.5"
            y2="1">
            <stop offset="0" stop-color="#89f995" />
            <stop offset="1" stop-color="#32c8d9" />
        </linearGradient>
        <linearGradient id="linear-gradient-2" y1="-0.811" xlink:href="#linear-gradient" />
    </defs>
    <g data-name="Group 47217" id="Group_47217" transform="translate(-377.008 -458.734)">
        <circle cx="17.496" cy="17.496" data-name="Ellipse 3815" fill="url(#linear-gradient)" id="Ellipse_3815"
            opacity="0.104" r="17.496" transform="translate(377.008 458.734)" />
        <g data-name="Group 46834" id="Group_46834" transform="translate(-3253.116 -7573)">
            <path d="M-169.857,326.076a4.631,4.631,0,0,1-4.636,4.612,4.633,4.633,0,0,1-4.587-4.66,4.6,4.6,0,0,1,4.616-4.577A4.6,4.6,0,0,1-169.857,326.076Zm-8.149-.018a3.554,3.554,0,0,0,3.535,3.55,3.556,3.556,0,0,0,3.542-3.543,3.572,3.572,0,0,0-3.535-3.557A3.571,3.571,0,0,0-178.006,326.057Z" data-name="Path 9069"
                fill="url(#linear-gradient-2)"
                id="Path_9069" transform="translate(3822.32 7720.033)" />
            <path d="M-191.468,461.813a8.8,8.8,0,0,1,5.888,2.312c.2.179.217.278.016.472-.522.5-.512.513-1.078.051a7.587,7.587,0,0,0-9.945.215c-.228.2-.351.239-.576,0-.5-.531-.514-.523.057-1A8.8,8.8,0,0,1-191.468,461.813Z" data-name="Path 9070"
                fill="url(#linear-gradient-2)"
                id="Path_9070" transform="translate(3839.347 7590.534)" />
        </g>
    </g>
</svg>
