<svg data-name="placeholder (1)" height="11.455" id="placeholder_1_" viewBox="0 0 9.188 11.455" width="9.188"
    xmlns="http://www.w3.org/2000/svg">
    <defs>
        <linearGradient gradientUnits="objectBoundingBox" id="linear-gradient" x1="0.5" x2="0.5" y1="-0.363"
            y2="1">
            <stop offset="0" stop-color="#89f995" />
            <stop offset="1" stop-color="#32c8d9" />
        </linearGradient>
    </defs>
    <g data-name="Group 331" id="Group_331" transform="translate(0)">
        <path d="M51.8,0a4.6,4.6,0,0,1,4.592,4.592,4.519,4.519,0,0,1-.082.862c0,.017-.012.067-.031.154a4.523,4.523,0,0,1-.307.905A12.872,12.872,0,0,1,52,11.383a.325.325,0,0,1-.408,0,12.9,12.9,0,0,1-3.97-4.87,4.471,4.471,0,0,1-.307-.905c-.019-.086-.029-.137-.031-.154a4.722,4.722,0,0,1-.082-.862A4.6,4.6,0,0,1,51.8,0ZM47.925,5.341s0,.01,0,.014.01.048.022.1v0a3.812,3.812,0,0,0,.267.783s0,.007,0,.01A12.012,12.012,0,0,0,51.8,10.713a12.013,12.013,0,0,0,3.576-4.457s0-.007,0-.01a4.066,4.066,0,0,0,.267-.783v0c.014-.055.019-.091.022-.1s0-.01,0-.017a3.943,3.943,0,1,0-7.742,0Z" data-name="Path 361"
            fill="url(#linear-gradient)"
            id="Path_361" transform="translate(-47.2)" />
        <path d="M119.915,71.9A2.915,2.915,0,1,1,117,74.815,2.92,2.92,0,0,1,119.915,71.9Zm0,5.182a2.267,2.267,0,1,0-2.267-2.267A2.27,2.27,0,0,0,119.915,77.082Z" data-name="Path 362"
            fill="url(#linear-gradient)"
            id="Path_362" transform="translate(-115.319 -70.173)" />
    </g>
</svg>
