<svg height="51" viewBox="0 0 51 51" width="51" xmlns="http://www.w3.org/2000/svg">
    <defs>
        <linearGradient gradientUnits="objectBoundingBox" id="linear-gradient" x1="0.5" x2="0.5"
            y2="1">
            <stop offset="0" stop-color="#89f995" />
            <stop offset="1" stop-color="#32c8d9" />
        </linearGradient>
    </defs>
    <g data-name="Group 6101" id="Group_6101" transform="translate(-144 -418)">
        <circle cx="22.5" cy="22.5" data-name="Ellipse 2307" fill="url(#linear-gradient)" id="Ellipse_2307"
            opacity="0.18" r="22.5" transform="translate(147 421)" />
        <circle cx="17.5" cy="17.5" data-name="Ellipse 2308" fill="url(#linear-gradient)" id="Ellipse_2308"
            opacity="0.21" r="17.5" transform="translate(152 426)" />
        <path d="M8.771,12.653a3.718,3.718,0,0,0,3.724-3.724A3.832,3.832,0,0,0,8.771,5.071,3.718,3.718,0,0,0,5.046,8.8,3.926,3.926,0,0,0,8.771,12.653ZM2.519,2.544a8.841,8.841,0,0,1,12.5,12.5L8.771,21.3,2.519,15.047A9.082,9.082,0,0,1,2.519,2.544Z" data-name="Path 8741"
            fill="#1c0f54"
            fill-rule="evenodd" id="Path_8741" transform="translate(160.68 434.702)" />
        <g data-name="Ellipse 2320" fill="none" id="Ellipse_2320" stroke="#32c8d9"
            stroke-width="1" transform="translate(144 418)">
            <circle cx="25.5" cy="25.5" r="25.5" stroke="none" />
            <circle cx="25.5" cy="25.5" fill="none" r="25" />
        </g>
    </g>
</svg>
